<svg width="85" height="85" viewBox="0 0 85 85" fill="none" xmlns="http://www.w3.org/2000/svg">
<path d="M1 21.75L42.5 1L84 21.75V63.25L42.5 84L1 63.25V21.75Z" stroke="#64FFDA"/>
<g clip-path="url(#clip0)">
<path d="M52.9055 27.5582C52.8484 27.09 52.755 26.7182 52.6202 26.4218C52.4744 26.0919 52.2994 25.8435 52.0853 25.6624C52.0785 25.6566 52.0717 25.6511 52.0648 25.6456C51.8088 25.4446 51.4991 25.3384 51.1691 25.3384H34.293C33.5046 25.3384 32.8259 25.5793 32.2756 26.0545C31.6939 26.5568 31.399 27.3341 31.399 28.3645V60.8324C31.399 61.2038 31.5177 61.5461 31.7423 61.8225C31.7471 61.8284 31.752 61.8343 31.757 61.8401C31.9711 62.0872 32.2817 62.2866 32.6558 62.4173C32.9775 62.5379 33.3866 62.6251 33.9414 62.6917C34.4401 62.7516 35.0604 62.7819 35.7851 62.7819C36.5323 62.7819 37.1595 62.7515 37.6513 62.6913C38.1851 62.6245 38.6011 62.535 38.9229 62.4175C39.3575 62.2628 39.6632 62.0598 39.8572 61.7969C40.0626 61.5216 40.1712 61.1882 40.1712 60.8324V48.2196H50.4419C50.7859 48.2196 51.0989 48.1105 51.3479 47.9041C51.5686 47.7273 51.7508 47.4713 51.9046 47.1219C51.9059 47.1186 51.9073 47.1154 51.9087 47.1122C52.033 46.8183 52.1185 46.4662 52.1778 46.0043C52.2318 45.5826 52.2592 45.0875 52.2592 44.5325C52.2592 43.9712 52.2318 43.4728 52.1778 43.0513C52.1179 42.5839 52.0296 42.2346 51.9 41.9518C51.8983 41.9481 51.8967 41.9445 51.8949 41.9409C51.7277 41.5915 51.5405 41.3539 51.3074 41.1958C51.0624 41.0158 50.7638 40.9208 50.4419 40.9208H40.1712V40.1267C40.1712 39.7228 39.8438 39.3954 39.4399 39.3954C39.0359 39.3954 38.7085 39.7228 38.7085 40.1267V41.6521C38.7085 42.056 39.0359 42.3834 39.4399 42.3834H50.4419C50.4469 42.3834 50.4508 42.3836 50.4538 42.3839C50.4601 42.3884 50.4663 42.3928 50.4727 42.3972C50.4848 42.4113 50.5202 42.4575 50.5727 42.5664C50.637 42.7091 50.6875 42.9288 50.727 43.2373C50.7732 43.5974 50.7966 44.0332 50.7966 44.5325C50.7966 45.0186 50.7725 45.4631 50.727 45.8183C50.6861 46.1371 50.6326 46.3727 50.5635 46.5379C50.4989 46.6837 50.4533 46.741 50.4388 46.7571H39.4399C39.0359 46.7571 38.7085 47.0845 38.7085 47.4884V60.8325C38.7085 60.8815 38.6973 60.9045 38.6891 60.9166C38.6721 60.9301 38.6031 60.9791 38.4304 61.0403C38.428 61.0412 38.4257 61.042 38.4232 61.0429C38.2093 61.1213 37.8885 61.1876 37.4717 61.2398C37.0406 61.2926 36.4732 61.3193 35.7852 61.3193C35.1185 61.3193 34.5568 61.2925 34.1157 61.2396C33.6879 61.1882 33.3678 61.123 33.1641 61.0458C33.1572 61.0431 33.1501 61.0406 33.1431 61.0382C32.9745 60.98 32.897 60.9163 32.8717 60.8919C32.8668 60.8829 32.8617 60.8667 32.8617 60.8324V28.3645C32.8617 27.7782 32.9862 27.3734 33.2317 27.1615C33.5165 26.9155 33.8537 26.801 34.293 26.801L51.1616 26.8013C51.1861 26.8309 51.23 26.894 51.2837 27.016C51.2851 27.0193 51.2867 27.0226 51.2882 27.026C51.3373 27.1332 51.4059 27.3433 51.4538 27.7353C51.4946 28.0707 51.5145 28.502 51.5145 29.0539C51.5145 29.6077 51.4947 30.0352 51.4541 30.3609C51.4078 30.731 51.34 30.9385 51.2906 31.0485C51.2117 31.2122 51.1569 31.2744 51.1438 31.288H39.4399C39.0359 31.288 38.7085 31.6154 38.7085 32.0193V33.5447C38.7085 33.9486 39.0359 34.276 39.4399 34.276C39.8438 34.276 40.1712 33.9486 40.1712 33.5447V32.7506H51.1691C51.5066 32.7506 51.8246 32.631 52.0852 32.4077C52.2846 32.2391 52.4571 31.9991 52.6126 31.6739C52.6144 31.6702 52.6161 31.6665 52.6178 31.6628C52.7542 31.3652 52.8482 30.9987 52.9053 30.5422C52.9542 30.1503 52.977 29.6774 52.977 29.0539C52.977 28.4422 52.9536 27.9531 52.9055 27.5582Z" fill="#64FFDA"/>
<path d="M39.4403 36.1042H39.4398C39.0359 36.1042 38.7088 36.4317 38.7088 36.8356C38.7088 37.2395 39.0364 37.5669 39.4403 37.5669C39.8443 37.5669 40.1717 37.2395 40.1717 36.8356C40.1717 36.4317 39.8443 36.1042 39.4403 36.1042Z" fill="#64FFDA"/>
</g>
<defs>
<clipPath id="clip0">
<rect width="37.4436" height="37.4436" fill="white" transform="translate(23.4662 25.3384)"/>
</clipPath>
</defs>
</svg>
